<svg viewBox="0 0 800 460" xmlns="http://www.w3.org/2000/svg" role="img">
  <defs>
    <linearGradient id="g" x1="0" y1="1" x2="1" y2="0"><stop offset="0" stop-color="#3D74FF"/><stop offset="1" stop-color="#26C7D1"/></linearGradient>
    <linearGradient id="sun" x1="0" y1="1" x2="0" y2="0"><stop offset="0" stop-color="#FF5A38"/><stop offset="1" stop-color="#FFB320"/></linearGradient>
    <radialGradient id="glow"><stop offset="0" stop-color="#26C7D1" stop-opacity=".55"/><stop offset="1" stop-color="#26C7D1" stop-opacity="0"/></radialGradient>
  </defs>
  
    <line x1="150" y1="140" x2="400" y2="110" stroke="#DDE2EC" stroke-width="2.5"/><line x1="150" y1="140" x2="400" y2="200" stroke="#DDE2EC" stroke-width="2.5"/><line x1="150" y1="140" x2="400" y2="290" stroke="#DDE2EC" stroke-width="2.5"/><line x1="150" y1="140" x2="400" y2="380" stroke="#DDE2EC" stroke-width="2.5"/><line x1="150" y1="230" x2="400" y2="110" stroke="#DDE2EC" stroke-width="2.5"/><line x1="150" y1="230" x2="400" y2="200" stroke="#DDE2EC" stroke-width="2.5"/><line x1="150" y1="230" x2="400" y2="290" stroke="#DDE2EC" stroke-width="2.5"/><line x1="150" y1="230" x2="400" y2="380" stroke="#DDE2EC" stroke-width="2.5"/><line x1="150" y1="320" x2="400" y2="110" stroke="#DDE2EC" stroke-width="2.5"/><line x1="150" y1="320" x2="400" y2="200" stroke="#DDE2EC" stroke-width="2.5"/><line x1="150" y1="320" x2="400" y2="290" stroke="#DDE2EC" stroke-width="2.5"/><line x1="150" y1="320" x2="400" y2="380" stroke="#DDE2EC" stroke-width="2.5"/><line x1="400" y1="110" x2="650" y2="185" stroke="#DDE2EC" stroke-width="2.5"/><line x1="400" y1="110" x2="650" y2="275" stroke="#DDE2EC" stroke-width="2.5"/><line x1="400" y1="200" x2="650" y2="185" stroke="#DDE2EC" stroke-width="2.5"/><line x1="400" y1="200" x2="650" y2="275" stroke="#DDE2EC" stroke-width="2.5"/><line x1="400" y1="290" x2="650" y2="185" stroke="#DDE2EC" stroke-width="2.5"/><line x1="400" y1="290" x2="650" y2="275" stroke="#DDE2EC" stroke-width="2.5"/><line x1="400" y1="380" x2="650" y2="185" stroke="#DDE2EC" stroke-width="2.5"/><line x1="400" y1="380" x2="650" y2="275" stroke="#DDE2EC" stroke-width="2.5"/><circle cx="150" cy="140" r="22" fill="url(#g)"/><circle cx="150" cy="230" r="22" fill="url(#g)"/><circle cx="150" cy="320" r="22" fill="url(#g)"/><circle cx="400" cy="110" r="22" fill="url(#g)"/><circle cx="400" cy="200" r="22" fill="url(#g)"/><circle cx="400" cy="290" r="22" fill="url(#g)"/><circle cx="400" cy="380" r="22" fill="url(#g)"/><circle cx="650" cy="185" r="22" fill="url(#g)"/><circle cx="650" cy="275" r="22" fill="url(#g)"/>
</svg>