<svg viewBox="0 0 800 460" xmlns="http://www.w3.org/2000/svg" role="img">
  <defs>
    <linearGradient id="g" x1="0" y1="1" x2="1" y2="0"><stop offset="0" stop-color="#3D74FF"/><stop offset="1" stop-color="#26C7D1"/></linearGradient>
    <linearGradient id="sun" x1="0" y1="1" x2="0" y2="0"><stop offset="0" stop-color="#FF5A38"/><stop offset="1" stop-color="#FFB320"/></linearGradient>
    <radialGradient id="glow"><stop offset="0" stop-color="#26C7D1" stop-opacity=".55"/><stop offset="1" stop-color="#26C7D1" stop-opacity="0"/></radialGradient>
  </defs>
  
    <circle cx="400" cy="250" r="120" fill="url(#sun)"/>
    <path d="M250 410 L370 250 h60 L550 410z" fill="url(#g)" opacity=".9"/>
    <line x1="120" y1="410" x2="680" y2="410" stroke="#0C1322" stroke-width="6" stroke-linecap="round" opacity=".3"/>
    <path d="M180 120 l6 14 15 2 -11 11 3 15 -13 -8 -13 8 3 -15 -11 -11 15 -2z" fill="#FFB320"/><path d="M620 150 l6 14 15 2 -11 11 3 15 -13 -8 -13 8 3 -15 -11 -11 15 -2z" fill="#FFB320"/><path d="M540 90 l6 14 15 2 -11 11 3 15 -13 -8 -13 8 3 -15 -11 -11 15 -2z" fill="#FFB320"/><path d="M250 90 l6 14 15 2 -11 11 3 15 -13 -8 -13 8 3 -15 -11 -11 15 -2z" fill="#FFB320"/>
</svg>