<svg viewBox="0 0 800 460" xmlns="http://www.w3.org/2000/svg" role="img">
  <defs>
    <linearGradient id="g" x1="0" y1="1" x2="1" y2="0"><stop offset="0" stop-color="#3D74FF"/><stop offset="1" stop-color="#26C7D1"/></linearGradient>
    <linearGradient id="sun" x1="0" y1="1" x2="0" y2="0"><stop offset="0" stop-color="#FF5A38"/><stop offset="1" stop-color="#FFB320"/></linearGradient>
    <radialGradient id="glow"><stop offset="0" stop-color="#26C7D1" stop-opacity=".55"/><stop offset="1" stop-color="#26C7D1" stop-opacity="0"/></radialGradient>
  </defs>
  
    <rect x="110" y="158" width="38" height="38" rx="6" fill="#EEF1F6"/><rect x="152" y="158" width="38" height="38" rx="6" fill="url(#g)"/><rect x="194" y="158" width="38" height="38" rx="6" fill="#EEF1F6"/><rect x="236" y="158" width="38" height="38" rx="6" fill="url(#g)"/><rect x="278" y="158" width="38" height="38" rx="6" fill="#EEF1F6"/><rect x="110" y="200" width="38" height="38" rx="6" fill="url(#g)"/><rect x="152" y="200" width="38" height="38" rx="6" fill="url(#g)"/><rect x="194" y="200" width="38" height="38" rx="6" fill="url(#g)"/><rect x="236" y="200" width="38" height="38" rx="6" fill="url(#g)"/><rect x="278" y="200" width="38" height="38" rx="6" fill="url(#g)"/><rect x="110" y="242" width="38" height="38" rx="6" fill="url(#g)"/><rect x="152" y="242" width="38" height="38" rx="6" fill="#EEF1F6"/><rect x="194" y="242" width="38" height="38" rx="6" fill="url(#g)"/><rect x="236" y="242" width="38" height="38" rx="6" fill="#EEF1F6"/><rect x="278" y="242" width="38" height="38" rx="6" fill="url(#g)"/><rect x="110" y="284" width="38" height="38" rx="6" fill="url(#g)"/><rect x="152" y="284" width="38" height="38" rx="6" fill="url(#g)"/><rect x="194" y="284" width="38" height="38" rx="6" fill="url(#g)"/><rect x="236" y="284" width="38" height="38" rx="6" fill="url(#g)"/><rect x="278" y="284" width="38" height="38" rx="6" fill="url(#g)"/><rect x="110" y="326" width="38" height="38" rx="6" fill="#EEF1F6"/><rect x="152" y="326" width="38" height="38" rx="6" fill="#EEF1F6"/><rect x="194" y="326" width="38" height="38" rx="6" fill="#EEF1F6"/><rect x="236" y="326" width="38" height="38" rx="6" fill="#EEF1F6"/><rect x="278" y="326" width="38" height="38" rx="6" fill="#EEF1F6"/>
    <path d="M380 250 h70" stroke="#0C1322" stroke-width="8" stroke-linecap="round" opacity=".3"/>
    <path d="M458 250 l-20 -12 v24 z" fill="#0C1322" opacity=".3"/>
    <g transform="translate(600 252)">
      <path d="M-48 -28 l-12 -56 54 30z" fill="#0C1322"/>
      <path d="M48 -28 l12 -56 -54 30z" fill="#0C1322"/>
      <circle cx="0" cy="0" r="66" fill="#0C1322"/>
      <circle cx="-24" cy="-8" r="9" fill="#FFB320"/><circle cx="24" cy="-8" r="9" fill="#FFB320"/>
      <path d="M0 8 l-10 13 h20z" fill="#FF5A38"/>
      <g stroke="#FFFFFF" stroke-width="3" stroke-linecap="round" opacity=".55"><path d="M12 20 h40 M12 30 h34 M-12 20 h-40 M-12 30 h-34"/></g>
    </g>
</svg>