<svg viewBox="0 0 800 460" xmlns="http://www.w3.org/2000/svg" role="img">
  <defs>
    <linearGradient id="g" x1="0" y1="1" x2="1" y2="0"><stop offset="0" stop-color="#3D74FF"/><stop offset="1" stop-color="#26C7D1"/></linearGradient>
    <linearGradient id="sun" x1="0" y1="1" x2="0" y2="0"><stop offset="0" stop-color="#FF5A38"/><stop offset="1" stop-color="#FFB320"/></linearGradient>
    <radialGradient id="glow"><stop offset="0" stop-color="#26C7D1" stop-opacity=".55"/><stop offset="1" stop-color="#26C7D1" stop-opacity="0"/></radialGradient>
  </defs>
  
    <rect x="110" y="120" width="120" height="60" rx="18" fill="#FFFFFF" stroke="#DDE2EC" stroke-width="3"/><rect x="110" y="200" width="120" height="60" rx="18" fill="#FFFFFF" stroke="#DDE2EC" stroke-width="3"/><rect x="110" y="280" width="120" height="60" rx="18" fill="#FFFFFF" stroke="#DDE2EC" stroke-width="3"/>
    <circle cx="140" cy="150" r="14" fill="#C2F5F8"/><rect x="165" y="142" width="50" height="10" rx="5" fill="#DDE2EC"/><circle cx="140" cy="230" r="14" fill="#C2F5F8"/><rect x="165" y="222" width="50" height="10" rx="5" fill="#DDE2EC"/><circle cx="140" cy="310" r="14" fill="#C2F5F8"/><rect x="165" y="302" width="50" height="10" rx="5" fill="#DDE2EC"/>
    <path d="M250 150 C 360 150, 380 230, 470 230" stroke="#26C7D1" stroke-width="5" fill="none" opacity=".8"/><path d="M250 230 C 360 230, 380 230, 470 230" stroke="#26C7D1" stroke-width="5" fill="none" opacity=".8"/><path d="M250 310 C 360 310, 380 230, 470 230" stroke="#26C7D1" stroke-width="5" fill="none" opacity=".8"/>
    <circle cx="560" cy="230" r="150" fill="url(#glow)"/>
    <circle cx="560" cy="230" r="64" fill="url(#g)"/>
    <text x="560" y="238" text-anchor="middle" font-family="JetBrains Mono, monospace" font-size="20" fill="#FFFFFF">AI</text>
</svg>